<svg width="16.000000" height="12.000000" viewBox="0 0 16 12" fill="none" xmlns="http://www.w3.org/2000/svg" xmlns:xlink="http://www.w3.org/1999/xlink">
	<desc>
			Created with Pixso.
	</desc>
	<defs/>
	<path id="Vector" d="M7 12C7 12 6 12 6 11C6 10 7 7 11 7C15 7 16 10 16 11C16 12 15 12 15 12L7 12ZM11 6C11.79 6 12.55 5.68 13.12 5.12C13.68 4.55 14 3.79 14 3C14 2.2 13.68 1.44 13.12 0.87C12.55 0.31 11.79 0 11 0C10.2 0 9.44 0.31 8.87 0.87C8.31 1.44 8 2.2 8 3C8 3.79 8.31 4.55 8.87 5.12C9.44 5.68 10.2 6 11 6ZM5.21 12C5.06 11.68 4.99 11.34 5 11C5 9.64 5.67 8.25 6.93 7.27C6.3 7.08 5.65 6.99 5 7C1 7 0 10 0 11C0 12 1 12 1 12L5.21 12ZM4.5 6C5.16 6 5.79 5.73 6.26 5.26C6.73 4.79 7 4.16 7 3.5C7 2.83 6.73 2.2 6.26 1.73C5.79 1.26 5.16 1 4.5 1C3.83 1 3.2 1.26 2.73 1.73C2.26 2.2 2 2.83 2 3.5C2 4.16 2.26 4.79 2.73 5.26C3.2 5.73 3.83 6 4.5 6Z" fill="#000000" fill-opacity="1.000000" fill-rule="nonzero"/>
</svg>
